<?xml version="1.0" encoding="utf-8"?>
<!-- Generator: Adobe Illustrator 16.0.0, SVG Export Plug-In . SVG Version: 6.00 Build 0)  -->
<!DOCTYPE svg PUBLIC "-//W3C//DTD SVG 1.1//EN" "http://www.w3.org/Graphics/SVG/1.1/DTD/svg11.dtd">
<svg version="1.1" id="Layer_1" xmlns="http://www.w3.org/2000/svg" xmlns:xlink="http://www.w3.org/1999/xlink" x="0px" y="0px"
	 width="460px" height="460px" viewBox="0 0 460 460" enable-background="new 0 0 460 460" xml:space="preserve">
<circle fill="#33C6F4" cx="230" cy="230" r="230"/>
<path opacity="0.15" fill="#D2EDF3" d="M65.854,220.59h71.77c7.221,0,12.892-1.413,17.012-4.232
	c4.117-2.821,6.177-6.715,6.177-11.68c0-4.174-1.551-7.729-4.655-10.663c-3.103-2.935-8.943-6.208-17.519-9.818l-28.438-11.511
	c-16.7-6.77-28.209-13.682-34.531-20.735c-6.318-7.054-9.477-16.052-9.477-26.999c0-13.541,4.796-23.923,14.387-31.146
	c9.592-7.221,23.359-10.833,41.301-10.833h61.443v27.761h-69.4c-5.642,0-10.042,1.241-13.202,3.724
	c-3.16,2.482-4.739,5.98-4.739,10.494c0,3.387,1.41,6.434,4.231,9.141s7.505,5.417,14.049,8.124l29.961,12.188
	c18.618,7.673,31.172,15.064,37.661,22.174c6.489,7.109,9.733,16.138,9.733,27.083c0,15.346-5.699,26.744-17.096,34.192
	c-11.397,7.446-28.945,11.172-52.642,11.172H65.854V220.59z"/>
<path opacity="0.15" fill="#D2EDF3" d="M275.91,343.099h72.326c7.279,0,12.992-1.421,17.143-4.265
	c4.151-2.842,6.224-6.767,6.224-11.77c0-4.209-1.562-7.79-4.688-10.747c-3.127-2.956-9.013-6.255-17.657-9.893L320.6,294.824
	c-16.829-6.823-28.428-13.788-34.797-20.896c-6.368-7.107-9.553-16.177-9.553-27.206c0-13.647,4.835-24.109,14.501-31.388
	c9.664-7.276,23.537-10.917,41.62-10.917h11.92v27.975h-19.938c-5.686,0-10.121,1.251-13.306,3.752
	c-3.183,2.504-4.773,6.026-4.773,10.577c0,3.41,1.421,6.481,4.262,9.212c2.842,2.727,7.563,5.456,14.158,8.187l30.192,12.279
	c18.764,7.735,31.416,15.186,37.956,22.349c6.535,7.163,9.805,16.263,9.805,27.292c0,15.464-5.742,26.95-17.226,34.457
	c-11.486,7.506-29.171,11.258-53.051,11.258H275.91V343.099z"/>
<path fill="#FFFFFF" d="M351.25,218.032c17.607-1.454,29.553-9.459,34.15-20.321c-6.355,3.904-26.074,8.157-36.961,4.1
	c-0.535-2.556-1.127-4.988-1.713-7.18c-8.299-30.472-36.707-55.013-66.475-52.051c2.412-0.973,4.855-1.879,7.285-2.689
	c3.275-1.177,22.498-4.309,19.475-11.089c-2.555-5.964-26.041,4.512-30.457,5.886c5.832-2.194,15.492-5.972,16.521-12.68
	c-8.947,1.223-17.725,5.457-24.506,11.608c2.451-2.64,4.307-5.852,4.699-9.31c-23.862,15.237-37.795,45.961-49.069,75.766
	c-8.853-8.578-16.702-15.339-23.749-19.088c-19.749-10.598-43.364-21.647-80.436-35.41c-1.136,12.264,6.063,28.576,26.819,39.421
	c-4.499-0.603-12.712,0.745-19.295,2.315c2.684,14.054,11.427,25.629,35.117,31.226c-10.825,0.714-16.42,3.176-21.484,8.487
	c4.921,9.771,16.955,21.273,38.588,18.909c-24.054,10.371-9.802,29.578,9.773,26.713c-33.405,34.493-86.065,31.961-116.298,3.106
	c78.945,107.575,250.558,63.615,276.123-39.996c19.16,0.158,30.426-6.637,37.406-14.13
	C375.731,223.497,359.733,221.565,351.25,218.032z"/>
<path fill="#59AAB4" d="M376.108,82.406c-35.051,7.26-38.292,31.302-38.018,41.554v14.932c-1.988-7.873-8.138-17.631-25.838-21.297
	c0,0,0.014,29.78,25.838,32.421v17.313l-8.806,8.806c-1.271-0.681-2.602-1.231-3.974-1.646v-7.134v-0.912h-0.912h-10.645h-0.912
	v0.912v7.134c-1.303,0.394-2.567,0.909-3.775,1.54l-5.027-5.027l-0.646-0.646l-0.645,0.646l-7.526,7.526l-0.645,0.645l0.645,0.646
	l4.918,4.918c-0.728,1.307-1.314,2.681-1.753,4.1h-7.026h-0.912v0.912v10.644v0.913h0.912h6.939c0.446,1.528,1.063,3.004,1.84,4.403
	l-4.918,4.918l-0.645,0.646l0.645,0.645l7.526,7.527l0.645,0.645l0.646-0.645l5.026-5.027c1.298,0.679,2.666,1.225,4.081,1.626
	v7.047V224h0.912h10.644h0.912v-0.912v-7.228c1.265-0.4,2.495-0.92,3.671-1.551l5.132,5.132l0.646,0.646l0.645-0.646l7.526-7.526
	l0.646-0.646l-0.646-0.645l-5.113-5.114c0.677-1.249,1.228-2.558,1.644-3.903h7.331l0,0h0.912v-0.912v-3.425v-7.219v-0.913v-62.327
	C376.106,117.86,376.108,82.406,376.108,82.406z M319.077,208.146c-7.127,0-12.925-5.799-12.925-12.925
	c0-7.127,5.798-12.925,12.925-12.925s12.925,5.798,12.925,12.925C332.001,202.348,326.204,208.146,319.077,208.146z"/>
</svg>
